<mxfile host="app.diagrams.net" modified="2023-08-17T05:13:09.092Z" agent="Mozilla/5.0 (Windows NT 10.0; Win64; x64) AppleWebKit/537.36 (KHTML, like Gecko) Chrome/109.0.0.0 Safari/537.36" etag="XdlWDOduDUbxXpfCT1TN" version="21.6.8" type="google">
  <diagram name="ページ1" id="CAR7LNhN3lg9KbOMNgop">
    <mxGraphModel grid="1" page="1" gridSize="10" guides="1" tooltips="1" connect="1" arrows="1" fold="1" pageScale="1" pageWidth="1169" pageHeight="827" math="0" shadow="0">
      <root>
        <mxCell id="0" />
        <mxCell id="1" parent="0" />
        <mxCell id="C9-7CEBXYub4_I-BHrXA-1" value="Encoder" style="rounded=1;whiteSpace=wrap;html=1;rotation=-90;fontStyle=1;fontSize=17;fillColor=#f8cecc;strokeColor=#b85450;" vertex="1" parent="1">
          <mxGeometry x="890" y="95.50000000000001" width="80" height="20" as="geometry" />
        </mxCell>
        <mxCell id="C9-7CEBXYub4_I-BHrXA-2" style="edgeStyle=orthogonalEdgeStyle;shape=connector;rounded=1;orthogonalLoop=1;jettySize=auto;html=1;dashed=1;labelBackgroundColor=default;strokeColor=default;fontFamily=Helvetica;fontSize=11;fontColor=default;endArrow=classic;" edge="1" parent="1" source="C9-7CEBXYub4_I-BHrXA-40" target="C9-7CEBXYub4_I-BHrXA-51">
          <mxGeometry relative="1" as="geometry">
            <mxPoint x="1230" y="290.7" as="sourcePoint" />
            <mxPoint x="570" y="320.7" as="targetPoint" />
            <Array as="points">
              <mxPoint x="1140" y="362.7" />
              <mxPoint x="480" y="362.7" />
            </Array>
          </mxGeometry>
        </mxCell>
        <mxCell id="C9-7CEBXYub4_I-BHrXA-3" style="edgeStyle=orthogonalEdgeStyle;rounded=0;orthogonalLoop=1;jettySize=auto;html=1;strokeColor=#00CC00;strokeWidth=3;fillColor=#d5e8d4;" edge="1" parent="1" source="C9-7CEBXYub4_I-BHrXA-9" target="C9-7CEBXYub4_I-BHrXA-14">
          <mxGeometry relative="1" as="geometry" />
        </mxCell>
        <mxCell id="C9-7CEBXYub4_I-BHrXA-4" value="&lt;font style=&quot;font-size: 17px;&quot;&gt;&lt;span style=&quot;font-size: 17px;&quot;&gt;library.&lt;br&gt;makeFunction&lt;/span&gt;&lt;/font&gt;" style="edgeLabel;html=1;align=center;verticalAlign=middle;resizable=0;points=[];labelBackgroundColor=none;fontSize=17;fontStyle=1;fontColor=#00CC00;" vertex="1" connectable="0" parent="C9-7CEBXYub4_I-BHrXA-3">
          <mxGeometry x="-0.2515" relative="1" as="geometry">
            <mxPoint x="15" as="offset" />
          </mxGeometry>
        </mxCell>
        <mxCell id="C9-7CEBXYub4_I-BHrXA-5" style="edgeStyle=orthogonalEdgeStyle;rounded=0;orthogonalLoop=1;jettySize=auto;html=1;strokeColor=#00CC00;strokeWidth=3;fillColor=#d5e8d4;fontStyle=1;fontSize=17;" edge="1" parent="1" source="C9-7CEBXYub4_I-BHrXA-14" target="C9-7CEBXYub4_I-BHrXA-16">
          <mxGeometry relative="1" as="geometry" />
        </mxCell>
        <mxCell id="C9-7CEBXYub4_I-BHrXA-6" value="&lt;font style=&quot;font-size: 17px;&quot; color=&quot;#00cc00&quot;&gt;&lt;b&gt;device.&lt;br&gt;makeRenderPipelineState&lt;/b&gt;&lt;/font&gt;" style="edgeLabel;html=1;align=center;verticalAlign=middle;resizable=0;points=[];labelBackgroundColor=none;" vertex="1" connectable="0" parent="C9-7CEBXYub4_I-BHrXA-5">
          <mxGeometry x="-0.155" y="1" relative="1" as="geometry">
            <mxPoint x="18" y="1" as="offset" />
          </mxGeometry>
        </mxCell>
        <mxCell id="C9-7CEBXYub4_I-BHrXA-7" style="edgeStyle=orthogonalEdgeStyle;rounded=0;orthogonalLoop=1;jettySize=auto;html=1;strokeWidth=3;strokeColor=#00CC00;fillColor=#d5e8d4;entryX=0.528;entryY=0.058;entryDx=0;entryDy=0;entryPerimeter=0;" edge="1" parent="1" source="C9-7CEBXYub4_I-BHrXA-16" target="C9-7CEBXYub4_I-BHrXA-1">
          <mxGeometry relative="1" as="geometry">
            <Array as="points">
              <mxPoint x="823" y="102.7" />
            </Array>
            <mxPoint x="748" y="110.7" as="sourcePoint" />
            <mxPoint x="910" y="52.7" as="targetPoint" />
          </mxGeometry>
        </mxCell>
        <mxCell id="C9-7CEBXYub4_I-BHrXA-8" value="encoder.&lt;br style=&quot;font-size: 17px;&quot;&gt;setRenderPipelineState" style="edgeLabel;html=1;align=center;verticalAlign=middle;resizable=0;points=[];labelBackgroundColor=none;fontSize=17;fontStyle=1;fontColor=#00CC00;" vertex="1" connectable="0" parent="C9-7CEBXYub4_I-BHrXA-7">
          <mxGeometry x="-0.2847" relative="1" as="geometry">
            <mxPoint x="26" as="offset" />
          </mxGeometry>
        </mxCell>
        <mxCell id="C9-7CEBXYub4_I-BHrXA-9" value="" style="shadow=0;dashed=0;html=1;strokeColor=none;fillColor=#000000;labelPosition=center;verticalLabelPosition=bottom;verticalAlign=top;align=center;outlineConnect=0;shape=mxgraph.veeam.library;container=0;" vertex="1" parent="1">
          <mxGeometry x="76" y="86.9" width="48" height="36.8" as="geometry" />
        </mxCell>
        <mxCell id="C9-7CEBXYub4_I-BHrXA-10" value="Metal Library" style="text;html=1;align=center;verticalAlign=middle;resizable=0;points=[];autosize=1;strokeColor=none;fillColor=none;fontSize=17;container=0;fontColor=#0000ff;fontStyle=1" vertex="1" parent="1">
          <mxGeometry x="35" y="51" width="130" height="30" as="geometry" />
        </mxCell>
        <mxCell id="C9-7CEBXYub4_I-BHrXA-11" style="edgeStyle=orthogonalEdgeStyle;rounded=0;orthogonalLoop=1;jettySize=auto;html=1;" edge="1" parent="1" source="C9-7CEBXYub4_I-BHrXA-12" target="C9-7CEBXYub4_I-BHrXA-9">
          <mxGeometry relative="1" as="geometry" />
        </mxCell>
        <mxCell id="C9-7CEBXYub4_I-BHrXA-12" value="" style="verticalLabelPosition=bottom;html=1;verticalAlign=top;align=center;strokeColor=none;fillColor=#000000;shape=mxgraph.azure.code_file;pointerEvents=1;container=0;" vertex="1" parent="1">
          <mxGeometry x="76.5" y="242.7" width="47.5" height="50" as="geometry" />
        </mxCell>
        <mxCell id="C9-7CEBXYub4_I-BHrXA-13" value="&lt;font color=&quot;#cc0000&quot;&gt;&lt;b&gt;Vertex Shader &amp;amp;&lt;br&gt;Fragment Shader&lt;/b&gt;&lt;/font&gt;&lt;br&gt;&lt;font style=&quot;font-size: 13px;&quot;&gt;(&lt;b&gt;M&lt;/b&gt;etal &lt;b&gt;S&lt;/b&gt;hading&amp;nbsp;&lt;b&gt;L&lt;/b&gt;anguage)&lt;/font&gt;" style="text;html=1;align=center;verticalAlign=middle;resizable=0;points=[];autosize=1;strokeColor=none;fillColor=none;fontSize=16;container=0;" vertex="1" parent="1">
          <mxGeometry x="10" y="292.7" width="180" height="70" as="geometry" />
        </mxCell>
        <mxCell id="C9-7CEBXYub4_I-BHrXA-14" value="" style="sketch=0;pointerEvents=1;shadow=0;dashed=0;html=1;strokeColor=none;fillColor=#000000;labelPosition=center;verticalLabelPosition=bottom;verticalAlign=top;outlineConnect=0;align=center;shape=mxgraph.office.concepts.script;container=0;" vertex="1" parent="1">
          <mxGeometry x="277" y="80.80000000000001" width="53" height="49" as="geometry" />
        </mxCell>
        <mxCell id="C9-7CEBXYub4_I-BHrXA-15" value="Render Pipeline&lt;br style=&quot;font-size: 17px;&quot;&gt;Descriptor" style="text;html=1;align=center;verticalAlign=middle;resizable=0;points=[];autosize=1;strokeColor=none;fillColor=none;fontSize=17;container=0;fontColor=#0000FF;fontStyle=1" vertex="1" parent="1">
          <mxGeometry x="238" y="29.699999999999996" width="150" height="50" as="geometry" />
        </mxCell>
        <mxCell id="C9-7CEBXYub4_I-BHrXA-16" value="" style="sketch=0;outlineConnect=0;fontColor=#232F3E;gradientColor=none;fillColor=#000000;strokeColor=none;dashed=0;verticalLabelPosition=bottom;verticalAlign=top;align=center;html=1;fontSize=12;fontStyle=0;aspect=fixed;pointerEvents=1;shape=mxgraph.aws4.iot_analytics_pipeline;container=0;" vertex="1" parent="1">
          <mxGeometry x="566" y="84.50000000000001" width="78" height="42" as="geometry" />
        </mxCell>
        <mxCell id="C9-7CEBXYub4_I-BHrXA-17" style="edgeStyle=orthogonalEdgeStyle;rounded=0;orthogonalLoop=1;jettySize=auto;html=1;entryX=0;entryY=0.5;entryDx=0;entryDy=0;strokeWidth=3;strokeColor=#00CC00;fontColor=default;fillColor=#d5e8d4;" edge="1" parent="1" source="C9-7CEBXYub4_I-BHrXA-55" target="C9-7CEBXYub4_I-BHrXA-61">
          <mxGeometry relative="1" as="geometry">
            <mxPoint x="1280" y="101" as="sourcePoint" />
            <Array as="points">
              <mxPoint x="1070" y="100" />
              <mxPoint x="1070" y="100" />
            </Array>
          </mxGeometry>
        </mxCell>
        <mxCell id="C9-7CEBXYub4_I-BHrXA-18" value="&lt;font color=&quot;#00cc00&quot;&gt;commandBuffer.&lt;br&gt;commit&lt;/font&gt;" style="edgeLabel;html=1;align=center;verticalAlign=middle;resizable=0;points=[];labelBackgroundColor=none;fontStyle=1;fontSize=17;fontColor=#808080;" vertex="1" connectable="0" parent="C9-7CEBXYub4_I-BHrXA-17">
          <mxGeometry x="-0.2991" y="-2" relative="1" as="geometry">
            <mxPoint x="18" y="-2" as="offset" />
          </mxGeometry>
        </mxCell>
        <mxCell id="C9-7CEBXYub4_I-BHrXA-19" style="edgeStyle=orthogonalEdgeStyle;rounded=0;orthogonalLoop=1;jettySize=auto;html=1;" edge="1" parent="1" source="C9-7CEBXYub4_I-BHrXA-63" target="C9-7CEBXYub4_I-BHrXA-21">
          <mxGeometry relative="1" as="geometry">
            <mxPoint x="1635" y="71" as="targetPoint" />
          </mxGeometry>
        </mxCell>
        <mxCell id="C9-7CEBXYub4_I-BHrXA-20" value="" style="group" vertex="1" connectable="0" parent="1">
          <mxGeometry x="1395" y="40" width="120" height="120" as="geometry" />
        </mxCell>
        <mxCell id="C9-7CEBXYub4_I-BHrXA-21" value="" style="pointerEvents=1;shadow=0;dashed=0;html=1;strokeColor=none;fillColor=#000000;labelPosition=center;verticalLabelPosition=bottom;verticalAlign=top;align=center;outlineConnect=0;shape=mxgraph.veeam.cpu;container=0;" vertex="1" parent="C9-7CEBXYub4_I-BHrXA-20">
          <mxGeometry width="120" height="120" as="geometry" />
        </mxCell>
        <mxCell id="C9-7CEBXYub4_I-BHrXA-22" value="&lt;font&gt;GPU&lt;/font&gt;" style="rounded=0;whiteSpace=wrap;html=1;fontStyle=1;fontSize=17;strokeColor=none;fillColor=#CC0000;fontColor=#ffffff;" vertex="1" parent="C9-7CEBXYub4_I-BHrXA-20">
          <mxGeometry x="25" y="25" width="70" height="70" as="geometry" />
        </mxCell>
        <mxCell id="C9-7CEBXYub4_I-BHrXA-23" value="Device" style="rounded=0;whiteSpace=wrap;html=1;fontStyle=1;fontSize=17;fontColor=#0000FF;strokeColor=none;fillColor=none;container=0;" vertex="1" parent="1">
          <mxGeometry x="1390" width="130" height="40" as="geometry" />
        </mxCell>
        <mxCell id="C9-7CEBXYub4_I-BHrXA-24" value="" style="rounded=0;whiteSpace=wrap;html=1;fillColor=none;strokeColor=none;" vertex="1" parent="1">
          <mxGeometry width="40" height="40" as="geometry" />
        </mxCell>
        <mxCell id="C9-7CEBXYub4_I-BHrXA-25" value="" style="rounded=0;whiteSpace=wrap;html=1;fillColor=none;strokeColor=none;" vertex="1" parent="1">
          <mxGeometry x="1600" y="2.220446049250313e-16" width="40" height="40" as="geometry" />
        </mxCell>
        <mxCell id="C9-7CEBXYub4_I-BHrXA-26" value="Drawable" style="ellipse;whiteSpace=wrap;html=1;fontSize=14;fillColor=#000000;strokeColor=none;fontStyle=1;align=center;fontColor=#ffffff;labelBackgroundColor=none;" vertex="1" parent="1">
          <mxGeometry x="944" y="134.70000000000005" width="70" height="28" as="geometry" />
        </mxCell>
        <mxCell id="C9-7CEBXYub4_I-BHrXA-27" value="reuse" style="shape=callout;whiteSpace=wrap;html=1;perimeter=calloutPerimeter;fontStyle=1;dashed=1;rounded=1;size=20;position=0.46;position2=0.02;fillColor=#f5f5f5;fontColor=#333333;strokeColor=#666666;fontSize=16;" vertex="1" parent="1">
          <mxGeometry x="610" y="-17.3" width="120" height="50" as="geometry" />
        </mxCell>
        <mxCell id="C9-7CEBXYub4_I-BHrXA-28" value="reuse" style="shape=callout;whiteSpace=wrap;html=1;perimeter=calloutPerimeter;fontStyle=1;dashed=1;rounded=1;size=10;position=0.4;position2=1;fillColor=#f5f5f5;fontColor=#333333;strokeColor=#666666;fontSize=16;" vertex="1" parent="1">
          <mxGeometry x="1031.5" y="220" width="120" height="40" as="geometry" />
        </mxCell>
        <mxCell id="C9-7CEBXYub4_I-BHrXA-29" value="disposable" style="shape=callout;whiteSpace=wrap;html=1;perimeter=calloutPerimeter;fontStyle=1;dashed=1;rounded=1;size=22;position=0.5;position2=0;fillColor=#f5f5f5;fontColor=#333333;strokeColor=#666666;fontSize=16;" vertex="1" parent="1">
          <mxGeometry x="990" y="-30" width="120" height="52" as="geometry" />
        </mxCell>
        <mxCell id="C9-7CEBXYub4_I-BHrXA-30" style="edgeStyle=orthogonalEdgeStyle;rounded=1;orthogonalLoop=1;jettySize=auto;html=1;strokeColor=#00CC00;strokeWidth=3;fillColor=#d5e8d4;entryX=0;entryY=0.5;entryDx=0;entryDy=0;" edge="1" parent="1" source="C9-7CEBXYub4_I-BHrXA-32" target="C9-7CEBXYub4_I-BHrXA-1">
          <mxGeometry relative="1" as="geometry">
            <Array as="points">
              <mxPoint x="930" y="310" />
            </Array>
            <mxPoint x="570" y="162.7" as="sourcePoint" />
            <mxPoint x="910" y="210" as="targetPoint" />
          </mxGeometry>
        </mxCell>
        <mxCell id="C9-7CEBXYub4_I-BHrXA-31" value="commandBuffer.&lt;br&gt;makeRenderCommandEncoder" style="edgeLabel;html=1;align=center;verticalAlign=middle;resizable=0;points=[];fontStyle=1;fontSize=17;fontColor=#00CC00;labelBackgroundColor=none;" vertex="1" connectable="0" parent="C9-7CEBXYub4_I-BHrXA-30">
          <mxGeometry x="-0.09" y="4" relative="1" as="geometry">
            <mxPoint x="34" y="-5" as="offset" />
          </mxGeometry>
        </mxCell>
        <mxCell id="C9-7CEBXYub4_I-BHrXA-32" value="" style="sketch=0;pointerEvents=1;shadow=0;dashed=0;html=1;strokeColor=none;fillColor=#000000;labelPosition=center;verticalLabelPosition=bottom;verticalAlign=top;outlineConnect=0;align=center;shape=mxgraph.office.concepts.script;container=0;" vertex="1" parent="1">
          <mxGeometry x="1190" y="282.55" width="53" height="49" as="geometry" />
        </mxCell>
        <mxCell id="C9-7CEBXYub4_I-BHrXA-33" value="Render Pass&lt;br style=&quot;font-size: 17px;&quot;&gt;Descriptor" style="text;html=1;align=center;verticalAlign=middle;resizable=0;points=[];autosize=1;strokeColor=none;fillColor=none;fontSize=17;container=0;fontColor=#0000FF;fontStyle=1" vertex="1" parent="1">
          <mxGeometry x="1151.5" y="222.4" width="130" height="50" as="geometry" />
        </mxCell>
        <mxCell id="C9-7CEBXYub4_I-BHrXA-34" style="edgeStyle=orthogonalEdgeStyle;rounded=1;orthogonalLoop=1;jettySize=auto;html=1;strokeColor=#00CC00;strokeWidth=3;fillColor=#d5e8d4;entryX=0.525;entryY=-0.012;entryDx=0;entryDy=0;entryPerimeter=0;exitX=0.961;exitY=0.606;exitDx=0;exitDy=0;exitPerimeter=0;" edge="1" parent="1" source="KWmuoeOS1NJF-o34lASM-6" target="C9-7CEBXYub4_I-BHrXA-1">
          <mxGeometry relative="1" as="geometry">
            <mxPoint x="890" y="62.7" as="targetPoint" />
            <Array as="points">
              <mxPoint x="630" y="180" />
              <mxPoint x="890" y="180" />
              <mxPoint x="890" y="104" />
            </Array>
            <mxPoint x="660" y="160" as="sourcePoint" />
          </mxGeometry>
        </mxCell>
        <mxCell id="C9-7CEBXYub4_I-BHrXA-35" value="encoder.&lt;br&gt;setVertexBuffer" style="edgeLabel;html=1;align=center;verticalAlign=middle;resizable=0;points=[];fontSize=17;fontStyle=1;fontColor=#00CC00;labelBackgroundColor=none;rotation=0;" vertex="1" connectable="0" parent="C9-7CEBXYub4_I-BHrXA-34">
          <mxGeometry x="-0.73" y="-3" relative="1" as="geometry">
            <mxPoint x="59" y="-4" as="offset" />
          </mxGeometry>
        </mxCell>
        <mxCell id="C9-7CEBXYub4_I-BHrXA-37" value="&lt;b style=&quot;border-color: var(--border-color);&quot;&gt;&lt;font style=&quot;border-color: var(--border-color);&quot; color=&quot;#0000ff&quot;&gt;Buffer&lt;/font&gt;&lt;br style=&quot;border-color: var(--border-color);&quot;&gt;&lt;font style=&quot;border-color: var(--border-color);&quot; color=&quot;#cc0000&quot;&gt;（Vertex Data）&lt;/font&gt;&lt;/b&gt;" style="text;html=1;align=center;verticalAlign=middle;resizable=0;points=[];autosize=1;strokeColor=none;fillColor=none;fontSize=16;container=0;" vertex="1" parent="1">
          <mxGeometry x="536.54" y="200" width="140" height="50" as="geometry" />
        </mxCell>
        <mxCell id="C9-7CEBXYub4_I-BHrXA-38" style="edgeStyle=orthogonalEdgeStyle;rounded=1;orthogonalLoop=1;jettySize=auto;html=1;strokeColor=#00CC00;strokeWidth=3;fillColor=#d5e8d4;entryX=0.525;entryY=-0.023;entryDx=0;entryDy=0;entryPerimeter=0;" edge="1" parent="1" source="C9-7CEBXYub4_I-BHrXA-40" target="C9-7CEBXYub4_I-BHrXA-1">
          <mxGeometry relative="1" as="geometry">
            <mxPoint x="920" y="172.7" as="targetPoint" />
            <Array as="points">
              <mxPoint x="890" y="278" />
              <mxPoint x="890" y="104" />
            </Array>
          </mxGeometry>
        </mxCell>
        <mxCell id="C9-7CEBXYub4_I-BHrXA-39" value="encoder.&lt;br style=&quot;font-size: 17px;&quot;&gt;setFragmentTexture" style="edgeLabel;html=1;align=center;verticalAlign=middle;resizable=0;points=[];fontStyle=1;fontSize=17;labelBackgroundColor=none;fontColor=#00CC00;rotation=0;" vertex="1" connectable="0" parent="C9-7CEBXYub4_I-BHrXA-38">
          <mxGeometry x="-0.4434" y="-1" relative="1" as="geometry">
            <mxPoint x="-4" y="1" as="offset" />
          </mxGeometry>
        </mxCell>
        <mxCell id="C9-7CEBXYub4_I-BHrXA-40" value="" style="sketch=0;outlineConnect=0;fontColor=#232F3E;gradientColor=none;fillColor=#000000;strokeColor=none;dashed=0;verticalLabelPosition=bottom;verticalAlign=top;align=center;html=1;fontSize=12;fontStyle=0;aspect=fixed;pointerEvents=1;shape=mxgraph.aws4.container_registry_image;" vertex="1" parent="1">
          <mxGeometry x="582.54" y="253.85" width="48" height="48" as="geometry" />
        </mxCell>
        <mxCell id="C9-7CEBXYub4_I-BHrXA-41" style="edgeStyle=orthogonalEdgeStyle;rounded=0;orthogonalLoop=1;jettySize=auto;html=1;" edge="1" parent="1" source="C9-7CEBXYub4_I-BHrXA-42" target="C9-7CEBXYub4_I-BHrXA-46">
          <mxGeometry relative="1" as="geometry" />
        </mxCell>
        <mxCell id="C9-7CEBXYub4_I-BHrXA-42" value="" style="sketch=0;outlineConnect=0;fontColor=#232F3E;gradientColor=none;fillColor=#000000;strokeColor=none;dashed=0;verticalLabelPosition=bottom;verticalAlign=top;align=center;html=1;fontSize=12;fontStyle=0;aspect=fixed;pointerEvents=1;shape=mxgraph.aws4.container_registry_image;" vertex="1" parent="1">
          <mxGeometry x="340" y="253.84999999999997" width="48" height="48" as="geometry" />
        </mxCell>
        <mxCell id="C9-7CEBXYub4_I-BHrXA-43" value="&lt;font color=&quot;#0000ff&quot;&gt;&lt;b&gt;Image&lt;/b&gt;&lt;/font&gt;" style="text;html=1;align=center;verticalAlign=middle;resizable=0;points=[];autosize=1;strokeColor=none;fillColor=none;fontSize=16;container=0;" vertex="1" parent="1">
          <mxGeometry x="329" y="302.7" width="70" height="30" as="geometry" />
        </mxCell>
        <mxCell id="C9-7CEBXYub4_I-BHrXA-44" style="edgeStyle=orthogonalEdgeStyle;rounded=0;orthogonalLoop=1;jettySize=auto;html=1;" edge="1" parent="1" source="C9-7CEBXYub4_I-BHrXA-46" target="C9-7CEBXYub4_I-BHrXA-40">
          <mxGeometry relative="1" as="geometry" />
        </mxCell>
        <mxCell id="C9-7CEBXYub4_I-BHrXA-45" value="Texture" style="edgeLabel;html=1;align=center;verticalAlign=middle;resizable=0;points=[];labelBackgroundColor=none;fontSize=16;" vertex="1" connectable="0" parent="C9-7CEBXYub4_I-BHrXA-44">
          <mxGeometry x="-0.1968" y="-1" relative="1" as="geometry">
            <mxPoint x="16" y="-11" as="offset" />
          </mxGeometry>
        </mxCell>
        <mxCell id="C9-7CEBXYub4_I-BHrXA-46" value="MTKTextureLoader" style="html=1;verticalLabelPosition=bottom;align=center;labelBackgroundColor=none;verticalAlign=top;strokeWidth=2;strokeColor=default;shadow=0;dashed=0;shape=mxgraph.ios7.icons.tools;pointerEvents=1;fontStyle=1;fontSize=14;fillColor=default;" vertex="1" parent="1">
          <mxGeometry x="450" y="262.99999999999994" width="29.7" height="29.7" as="geometry" />
        </mxCell>
        <mxCell id="C9-7CEBXYub4_I-BHrXA-47" style="edgeStyle=orthogonalEdgeStyle;rounded=1;orthogonalLoop=1;jettySize=auto;html=1;strokeColor=#00CC00;strokeWidth=3;fillColor=#d5e8d4;jumpStyle=gap;exitX=0.5;exitY=0;exitDx=0;exitDy=0;" edge="1" parent="1" source="C9-7CEBXYub4_I-BHrXA-65" target="C9-7CEBXYub4_I-BHrXA-26">
          <mxGeometry relative="1" as="geometry">
            <Array as="points">
              <mxPoint x="1375" y="200" />
              <mxPoint x="979" y="200" />
            </Array>
          </mxGeometry>
        </mxCell>
        <mxCell id="C9-7CEBXYub4_I-BHrXA-48" value="commandBuffer.&lt;br&gt;present" style="edgeLabel;html=1;align=center;verticalAlign=middle;resizable=0;points=[];fontStyle=1;fontSize=17;fontColor=#00CC00;labelBackgroundColor=none;" vertex="1" connectable="0" parent="C9-7CEBXYub4_I-BHrXA-47">
          <mxGeometry x="-0.4051" y="-1" relative="1" as="geometry">
            <mxPoint x="144" y="23" as="offset" />
          </mxGeometry>
        </mxCell>
        <mxCell id="C9-7CEBXYub4_I-BHrXA-49" style="edgeStyle=orthogonalEdgeStyle;rounded=0;orthogonalLoop=1;jettySize=auto;html=1;dashed=1;" edge="1" parent="1" source="C9-7CEBXYub4_I-BHrXA-65" target="C9-7CEBXYub4_I-BHrXA-32">
          <mxGeometry relative="1" as="geometry" />
        </mxCell>
        <mxCell id="C9-7CEBXYub4_I-BHrXA-50" value="Texture" style="edgeLabel;html=1;align=center;verticalAlign=middle;resizable=0;points=[];labelBackgroundColor=none;fontSize=16;" vertex="1" connectable="0" parent="C9-7CEBXYub4_I-BHrXA-49">
          <mxGeometry x="-0.3799" y="-1" relative="1" as="geometry">
            <mxPoint x="-15" y="-8" as="offset" />
          </mxGeometry>
        </mxCell>
        <mxCell id="C9-7CEBXYub4_I-BHrXA-51" value="MetalKit&lt;br style=&quot;font-size: 14px;&quot;&gt;View" style="rounded=0;whiteSpace=wrap;html=1;fontFamily=Helvetica;fontSize=14;fontColor=default;fontStyle=1;strokeWidth=2;fillColor=none;" vertex="1" parent="1">
          <mxGeometry x="1400" y="280.55" width="80" height="40" as="geometry" />
        </mxCell>
        <mxCell id="C9-7CEBXYub4_I-BHrXA-52" value="Pixel Format" style="text;html=1;align=center;verticalAlign=middle;resizable=0;points=[];autosize=1;strokeColor=none;fillColor=none;fontSize=16;container=0;fontStyle=1;rotation=0;" vertex="1" parent="1">
          <mxGeometry x="180" y="170" width="120" height="30" as="geometry" />
        </mxCell>
        <mxCell id="C9-7CEBXYub4_I-BHrXA-53" style="edgeStyle=orthogonalEdgeStyle;rounded=1;orthogonalLoop=1;jettySize=auto;html=1;dashed=1;" edge="1" parent="1" source="C9-7CEBXYub4_I-BHrXA-40" target="C9-7CEBXYub4_I-BHrXA-14">
          <mxGeometry relative="1" as="geometry">
            <Array as="points">
              <mxPoint x="607" y="360" />
              <mxPoint x="304" y="360" />
            </Array>
            <mxPoint x="1180" y="382.7" as="sourcePoint" />
            <mxPoint x="506" y="129.7" as="targetPoint" />
          </mxGeometry>
        </mxCell>
        <mxCell id="C9-7CEBXYub4_I-BHrXA-54" value="Render Pipeline&lt;br&gt;State" style="text;html=1;align=center;verticalAlign=middle;resizable=0;points=[];autosize=1;strokeColor=none;fillColor=none;fontSize=17;container=0;fontColor=#0000FF;fontStyle=1" vertex="1" parent="1">
          <mxGeometry x="530" y="32.69999999999999" width="150" height="50" as="geometry" />
        </mxCell>
        <mxCell id="C9-7CEBXYub4_I-BHrXA-55" value="" style="shape=image;html=1;verticalAlign=top;verticalLabelPosition=bottom;labelBackgroundColor=#ffffff;imageAspect=0;aspect=fixed;image=https://cdn2.iconfinder.com/data/icons/essential-web-5/50/script-programming-coding-add-on-128.png;imageBackground=none;imageBorder=none;" vertex="1" parent="1">
          <mxGeometry x="940" y="62" width="78" height="78" as="geometry" />
        </mxCell>
        <mxCell id="C9-7CEBXYub4_I-BHrXA-56" value="Command&lt;br&gt;Buffer" style="rounded=0;whiteSpace=wrap;html=1;fontStyle=1;fontSize=17;fontColor=#0000FF;strokeColor=none;fillColor=none;" vertex="1" parent="1">
          <mxGeometry x="917" y="18" width="100" height="40" as="geometry" />
        </mxCell>
        <mxCell id="C9-7CEBXYub4_I-BHrXA-57" value="Command Queue" style="rounded=0;whiteSpace=wrap;html=1;fontStyle=1;fontSize=17;fontColor=#0000FF;strokeColor=none;fillColor=none;container=0;" vertex="1" parent="1">
          <mxGeometry x="1190" y="28.3" width="130" height="40" as="geometry" />
        </mxCell>
        <mxCell id="C9-7CEBXYub4_I-BHrXA-58" value="" style="group" vertex="1" connectable="0" parent="1">
          <mxGeometry x="1195" y="81" width="120" height="40" as="geometry" />
        </mxCell>
        <mxCell id="C9-7CEBXYub4_I-BHrXA-59" value="" style="endArrow=none;html=1;strokeWidth=3;rounded=1;strokeColor=#000000;" edge="1" parent="C9-7CEBXYub4_I-BHrXA-58">
          <mxGeometry width="50" height="50" relative="1" as="geometry">
            <mxPoint y="-10" as="sourcePoint" />
            <mxPoint x="120" y="-10" as="targetPoint" />
            <Array as="points">
              <mxPoint />
              <mxPoint x="120" />
            </Array>
          </mxGeometry>
        </mxCell>
        <mxCell id="C9-7CEBXYub4_I-BHrXA-60" value="" style="endArrow=none;html=1;rounded=1;strokeWidth=3;strokeColor=#000000;" edge="1" parent="C9-7CEBXYub4_I-BHrXA-58">
          <mxGeometry width="50" height="50" relative="1" as="geometry">
            <mxPoint y="50" as="sourcePoint" />
            <mxPoint x="120" y="50" as="targetPoint" />
            <Array as="points">
              <mxPoint y="40" />
              <mxPoint x="120" y="40" />
            </Array>
          </mxGeometry>
        </mxCell>
        <mxCell id="C9-7CEBXYub4_I-BHrXA-61" value="" style="shape=image;html=1;verticalAlign=top;verticalLabelPosition=bottom;labelBackgroundColor=#ffffff;imageAspect=0;aspect=fixed;image=https://cdn2.iconfinder.com/data/icons/essential-web-5/50/script-programming-coding-add-on-128.png;container=0;imageBackground=none;" vertex="1" parent="C9-7CEBXYub4_I-BHrXA-58">
          <mxGeometry x="6" y="5" width="28" height="28" as="geometry" />
        </mxCell>
        <mxCell id="C9-7CEBXYub4_I-BHrXA-62" value="" style="shape=image;html=1;verticalAlign=top;verticalLabelPosition=bottom;labelBackgroundColor=#ffffff;imageAspect=0;aspect=fixed;image=https://cdn2.iconfinder.com/data/icons/essential-web-5/50/script-programming-coding-add-on-128.png;container=0;" vertex="1" parent="C9-7CEBXYub4_I-BHrXA-58">
          <mxGeometry x="46" y="5" width="28" height="28" as="geometry" />
        </mxCell>
        <mxCell id="C9-7CEBXYub4_I-BHrXA-63" value="" style="shape=image;html=1;verticalAlign=top;verticalLabelPosition=bottom;labelBackgroundColor=#ffffff;imageAspect=0;aspect=fixed;image=https://cdn2.iconfinder.com/data/icons/essential-web-5/50/script-programming-coding-add-on-128.png;container=0;" vertex="1" parent="C9-7CEBXYub4_I-BHrXA-58">
          <mxGeometry x="86" y="5" width="28" height="28" as="geometry" />
        </mxCell>
        <mxCell id="C9-7CEBXYub4_I-BHrXA-64" value="Pixel Format" style="text;html=1;align=center;verticalAlign=middle;resizable=0;points=[];autosize=1;strokeColor=none;fillColor=none;fontSize=16;container=0;fontStyle=1;rotation=0;" vertex="1" parent="1">
          <mxGeometry x="1440" y="331.55" width="120" height="30" as="geometry" />
        </mxCell>
        <mxCell id="C9-7CEBXYub4_I-BHrXA-65" value="Drawable" style="ellipse;whiteSpace=wrap;html=1;fontSize=14;fillColor=#000000;strokeColor=none;fontStyle=1;align=center;fontColor=#ffffff;labelBackgroundColor=none;" vertex="1" parent="1">
          <mxGeometry x="1340" y="293.0500000000001" width="70" height="28" as="geometry" />
        </mxCell>
        <mxCell id="C9-7CEBXYub4_I-BHrXA-66" value="&lt;b style=&quot;border-color: var(--border-color);&quot;&gt;&lt;font style=&quot;border-color: var(--border-color);&quot; color=&quot;#0000ff&quot;&gt;Buffer&lt;/font&gt;&lt;br style=&quot;border-color: var(--border-color);&quot;&gt;&lt;font style=&quot;border-color: var(--border-color);&quot; color=&quot;#cc0000&quot;&gt;（Texture Data）&lt;/font&gt;&lt;/b&gt;" style="text;html=1;align=center;verticalAlign=middle;resizable=0;points=[];autosize=1;strokeColor=none;fillColor=none;fontSize=16;container=0;" vertex="1" parent="1">
          <mxGeometry x="530" y="302.7" width="150" height="50" as="geometry" />
        </mxCell>
        <mxCell id="KWmuoeOS1NJF-o34lASM-6" value="" style="sketch=0;aspect=fixed;pointerEvents=1;shadow=0;dashed=0;html=1;strokeColor=none;labelPosition=center;verticalLabelPosition=bottom;verticalAlign=top;align=center;fillColor=#000000;shape=mxgraph.mscae.enterprise.document" vertex="1" parent="1">
          <mxGeometry x="586.54" y="150" width="40" height="50" as="geometry" />
        </mxCell>
      </root>
    </mxGraphModel>
  </diagram>
</mxfile>
